# xmcd CD database file
#
# Track frame offsets:
#	150
#	26860
#	58825
#	92455
#	116370
#	132837
#	147422
#	167815
#	175060
#	201740
#	224710
#	254507
#	281360
#	309192
#
# Disc length: 4183 seconds
#
# Revision: 0
# Processed by: cddbd v1.5.2PL0 Copyright (c) Steve Scherf et al.
# Submitted via: CDex 1.70beta3
#
DISCID=d610550e
DTITLE=パンゴ - ワルツ
DYEAR=1995
DGENRE=Jazz
TTITLE0=ラクツ
TTITLE1=まっか
TTITLE2=あいじ
TTITLE3=テーマ
TTITLE4=未会のタンゴ
TTITLE5=Take Five
TTITLE6=Ha !
TTITLE7=さよなら
TTITLE8=ロンドン
TTITLE9=いけない
TTITLE10=シド
TTITLE11=新テーマ
TTITLE12=ワルツ
TTITLE13=ハバネラ
EXTD=YEAR: 1995
EXTT0=
EXTT1=
EXTT2=
EXTT3=
EXTT4=
EXTT5=
EXTT6=
EXTT7=
EXTT8=
EXTT9=
EXTT10=
EXTT11=
EXTT12=
EXTT13=
PLAYORDER=
